<svg id="svg" version="1.1" viewBox="0 0 300 300" width="300" height="300" xmlns="http://www.w3.org/2000/svg"><svg xmlns="http://www.w3.org/2000/svg"><defs><clipPath id="clip-1"><rect x="0" y="0" transform="scale(0.14648,0.14648)" width="2048" height="2048" fill="none"/></clipPath><linearGradient x1="261.83789" y1="265.53662" x2="174.26953" y2="139.69526" gradientUnits="userSpaceOnUse" id="color-1"><stop offset="0" stop-color="#e03537"/><stop offset="1" stop-color="#ff6f3c"/></linearGradient><linearGradient x1="203.33936" y1="141.76201" x2="138.85166" y2="75.48237" gradientUnits="userSpaceOnUse" id="color-2"><stop offset="0" stop-color="#ff4c42"/><stop offset="1" stop-color="#ff8966"/></linearGradient><linearGradient x1="203.76855" y1="232.39014" x2="165.55664" y2="126.23467" gradientUnits="userSpaceOnUse" id="color-3"><stop offset="0" stop-color="#fedfcb"/><stop offset="1" stop-color="#feffff"/></linearGradient><linearGradient x1="212.19873" y1="189.09961" x2="191.92822" y2="129.99888" gradientUnits="userSpaceOnUse" id="color-4"><stop offset="0" stop-color="#fe541c"/><stop offset="1" stop-color="#ff9a81"/></linearGradient><linearGradient x1="214.20996" y1="213.35156" x2="190.34033" y2="138.1251" gradientUnits="userSpaceOnUse" id="color-5"><stop offset="0" stop-color="#fe443e"/><stop offset="1" stop-color="#ffa373"/></linearGradient><linearGradient x1="228.94482" y1="203.7832" x2="207.49365" y2="174.32813" gradientUnits="userSpaceOnUse" id="color-6"><stop offset="0" stop-color="#febec3"/><stop offset="1" stop-color="#feffff"/></linearGradient><linearGradient x1="218.90771" y1="179.896" x2="220.23486" y2="167.57959" gradientUnits="userSpaceOnUse" id="color-7"><stop offset="0" stop-color="#fbaa1b"/><stop offset="1" stop-color="#ffda3a"/></linearGradient><linearGradient x1="221.5752" y1="50.3792" x2="72.81753" y2="94.84746" gradientUnits="userSpaceOnUse" id="color-8"><stop offset="0" stop-color="#ff6b54"/><stop offset="1" stop-color="#ffa37b"/></linearGradient><linearGradient x1="123.26323" y1="175.78857" x2="97.11138" y2="200.81396" gradientUnits="userSpaceOnUse" id="color-9"><stop offset="0" stop-color="#c9231e"/><stop offset="1" stop-color="#ea3635"/></linearGradient></defs><g clip-path="url(#clip-1)" fill="none" fill-rule="nonzero" stroke="none" stroke-width="1" stroke-linecap="butt" stroke-linejoin="miter" stroke-miterlimit="10" stroke-dasharray="" stroke-dashoffset="0" font-family="none" font-weight="none" font-size="none" text-anchor="none" style="mix-blend-mode: normal"><path d="M226.80029,295.51465c-6.6167,-0.14941 -13.53662,-0.00293 -20.1709,0.01904l-30.33545,0.04395l-87.44092,0.00293c-5.37129,0.02783 -10.82871,-0.11719 -16.23501,-0.08789c-4.36348,0.02344 -10.30693,0.15967 -14.54941,-0.14355c-14.81426,-1.05762 -28.92319,-6.92871 -39.48267,-17.52832c-8.26097,-8.29248 -13.0142,-17.61768 -15.58838,-28.99951c-2.48273,-10.97754 -1.90378,-20.5708 -1.8905,-31.71094l-0.00185,-30.12305l-0.02454,-118.56855c-0.02388,-18.51401 4.10072,-33.95859 17.65996,-47.18613c8.43398,-8.22768 19.304,-13.64117 30.84756,-15.81772c8.38198,-1.58043 17.65957,-1.16167 26.20928,-1.17001l34.1269,-0.00741l126.39302,0.03078c17.37598,0.01384 33.44238,5.21187 45.89941,17.78336c7.10889,7.27192 12.1377,16.31558 14.56641,26.19023c2.63965,10.52563 2.31738,18.82852 2.32617,29.52041c0.0249,7.49268 0.01025,14.9855 -0.04395,22.47803l0.02344,55.21772c-0.00293,0.48779 -0.03076,1.94092 0.04395,2.35693l-0.02344,46.38281l-0.00879,15.6167c-0.00146,1.92627 -0.12598,5.896 0.03076,7.67432c-0.02783,0.9917 -0.28711,4.80469 -0.15381,5.46533c-0.99463,14.52539 -3,26.02588 -12.00586,38.18994c-1.22607,1.65527 -2.29102,2.92969 -3.6958,4.44434c-0.62256,0.6709 -3.66943,3.56836 -3.98877,4.08398c-2.66016,2.03174 -4.93652,3.99463 -7.80908,5.82129c-8.63672,5.4917 -19.16455,8.99121 -29.36133,9.8291c-4.59961,0.37939 -10.66553,0.31055 -15.31641,0.19189z" fill="#ffffff"/><path d="M110.71274,102.6019c3.30278,0.3854 6.59517,0.94072 9.90146,1.33447c3.40957,0.40605 6.86177,0.64629 10.28862,0.86514c24.3501,1.55581 55.79443,-0.53115 78.646,-9.34233c8.34082,-3.21606 18.32813,-7.53486 22.1748,-16.19297c0.03662,0.88813 0.03955,1.55566 0.00732,2.4438c0.29736,9.82075 -0.04102,19.99072 -0.05859,29.82964c-0.00146,1.17246 -1.61426,3.82529 -2.35254,4.77275c-0.28125,0.42437 -0.33838,0.49702 -0.54346,0.98101c0.12891,1.43203 0.36475,4.69351 -0.19336,5.99429c-0.30615,0.18237 -0.14355,0.1585 -0.48926,0.07251l-0.20947,0.1897c0.64746,0.07573 0.52148,0.16787 0.91992,-0.11953c0.74561,-1.78828 0.11133,-5.04785 0.46289,-5.28193c1.229,0.78325 3.87451,5.78276 3.56104,7.29126c-0.854,0.46729 -2.90771,-1.5873 -4.58789,-1.69058c0.31787,0.48413 2.55908,1.13145 3.37793,1.67256c6.04102,3.99902 12.31348,8.60142 17.01416,14.15552c0.35889,0.42568 1.38135,1.65557 1.58643,2.07671c0.52002,0.71104 1.09424,1.46733 1.58496,2.18979c8.67773,12.95757 12.07764,26.75347 9.88477,42.2603c2.10498,0.18018 8.50195,6.47754 10.00195,8.3291c4.59229,5.66455 7.66992,12.08789 6.87451,19.52197c-0.40869,3.80713 -1.60693,7.01514 -3.35303,10.40186c-0.36914,0.71484 -1.27881,1.69189 -1.48096,2.1665c4.5835,4.67139 9.6958,7.73291 9.55518,15.04541c-0.03809,2.04199 -0.33691,4.14697 -1.12354,6.03662c-0.08936,0.21387 -0.82471,1.90576 -0.85107,1.99951c-0.64307,2.97656 -4.95117,6.82324 -7.47949,8.45068c-4.29639,2.78467 -9.53027,3.72949 -14.52686,2.62061c-1.70068,-0.38818 -3.43799,-1.21729 -4.8252,-2.27344c-1.64209,-1.25244 -9.51562,-10.62891 -10.23633,-10.59961c-0.41162,0.01611 -3.1084,1.41357 -3.6958,1.66846c-2.65869,1.15283 -7.33887,3.26221 -10.06934,3.76758c-0.22119,0.04102 -0.12744,0.02197 -0.40137,0.1333c0.22852,0.45996 1.52197,1.36523 1.98779,1.7915c2.78174,2.54297 5.3042,4.78418 8.79639,6.38672c0.5874,0.26953 1.11621,0.64307 1.70801,0.87012l-0.1377,0.06738c-2.26025,-0.93604 -5.46094,-2.67041 -7.25244,-4.24512c-2.04785,-1.79736 -3.43359,-3.23877 -5.69971,-4.83252c-8.41406,2.81396 -17.02148,5.01563 -25.75342,6.5874c-2.00098,0.36914 -5.12842,1.03711 -7.08252,1.24512c-1.16895,-0.01758 -3.41162,-0.92725 -4.60693,-1.36816c-7.19971,-2.64844 -15.26807,-6.87012 -21.10547,-11.91064c2.41113,-0.2417 5.21484,-0.51123 7.59521,-0.92285c-0.67676,-0.479 -2.19727,-0.86865 -3.09814,-1.23193c-3.19482,-1.29346 -6.65625,-2.43311 -9.67383,-4.1001c-0.34277,-0.19043 -0.14062,-0.15674 -0.7002,-0.37793l1.18506,-0.11865c-0.29443,-0.06152 -0.14502,-0.00293 -0.43799,-0.20215c-0.02783,-0.83789 0.19922,-1.94678 0.34131,-2.80664l0.89648,-0.14795c0.15674,-0.39697 0.54199,-1.021 0.76465,-1.40918c-12.65625,-6.07324 -24.69126,-20.69971 -29.51792,-33.78223c2.06001,-0.03955 4.10625,0.01611 6.16597,0.06006c-0.73945,-2.11816 -1.74507,-4.19238 -2.49683,-6.375c-0.27817,-0.854 -0.53701,-1.71533 -0.77637,-2.58105c-0.548,-1.93506 -1.0188,-4.10156 -1.45371,-6.0791c-0.6687,-2.64697 -1.03066,-9.74414 -0.77944,-12.44678c0.23936,-2.5752 1.67168,-14.14893 3.44355,-15.67969c0.50127,-1.75488 0.94834,-3.24902 1.5561,-4.96729c-1.51157,-0.15674 -4.12104,-0.10107 -5.73135,-0.10693c0.13242,-0.43359 0.56279,-1.34326 0.76069,-1.7959c0.31992,-0.44824 1.53398,-3.16113 1.82681,-3.79541c1.90415,-0.0249 3.80859,-0.01611 5.71245,0.02197l1.21143,-2.39209c1.36816,-2.24824 2.53418,-4.13174 4.14258,-6.22837c-0.78662,-0.12173 -4.69629,-0.02959 -5.66733,-0.0186c-8.52437,-0.00308 -17.03965,-0.55942 -25.49194,-1.66553c-3.10781,-0.38071 -8.43325,-1.08618 -11.49902,-1.85625c0.79937,0.03281 1.19941,0.21797 1.20029,-0.71074c0.01113,-10.91646 0.23877,-21.82119 0.10825,-32.74043c-0.00439,-0.35962 0.01216,-0.58623 0.19482,-0.90571z" fill="#fec7ae"/><path d="M251.80371,143.8437c8.67773,12.95757 12.07764,26.75347 9.88477,42.2603c2.10498,0.18018 8.50195,6.47754 10.00195,8.3291c4.59229,5.66455 7.66992,12.08789 6.87451,19.52197c-0.40869,3.80713 -1.60693,7.01514 -3.35303,10.40186c-0.36914,0.71484 -1.27881,1.69189 -1.48096,2.1665c4.5835,4.67139 9.6958,7.73291 9.55518,15.04541c-0.03809,2.04199 -0.33691,4.14697 -1.12354,6.03662c-0.08936,0.21387 -0.82471,1.90576 -0.85107,1.99951c-0.64307,2.97656 -4.95117,6.82324 -7.47949,8.45068c-4.29639,2.78467 -9.53027,3.72949 -14.52686,2.62061c-1.70068,-0.38818 -3.43799,-1.21729 -4.8252,-2.27344c-1.64209,-1.25244 -9.51562,-10.62891 -10.23633,-10.59961c-0.41162,0.01611 -3.1084,1.41357 -3.6958,1.66846c-2.65869,1.15283 -7.33887,3.26221 -10.06934,3.76758c-0.22119,0.04102 -0.12744,0.02197 -0.40137,0.1333c0.22852,0.45996 1.52197,1.36523 1.98779,1.7915c2.78174,2.54297 5.3042,4.78418 8.79639,6.38672c0.5874,0.26953 1.11621,0.64307 1.70801,0.87012l-0.1377,0.06738c-2.26025,-0.93604 -5.46094,-2.67041 -7.25244,-4.24512c-2.04785,-1.79736 -3.43359,-3.23877 -5.69971,-4.83252c-8.41406,2.81396 -17.02148,5.01563 -25.75342,6.5874c-2.00098,0.36914 -5.12842,1.03711 -7.08252,1.24512c-1.16895,-0.01758 -3.41162,-0.92725 -4.60693,-1.36816c-7.19971,-2.64844 -15.26807,-6.87012 -21.10547,-11.91064c2.41113,-0.2417 5.21484,-0.51123 7.59521,-0.92285c-0.67676,-0.479 -2.19727,-0.86865 -3.09814,-1.23193c-3.19482,-1.29346 -6.65625,-2.43311 -9.67383,-4.1001c-0.34277,-0.19043 -0.14062,-0.15674 -0.7002,-0.37793l1.18506,-0.11865c-0.29443,-0.06152 -0.14502,-0.00293 -0.43799,-0.20215c-0.02783,-0.83789 0.19922,-1.94678 0.34131,-2.80664l0.89648,-0.14795c0.15674,-0.39697 0.54199,-1.021 0.76465,-1.40918c-12.65625,-6.07324 -24.69126,-20.69971 -29.51792,-33.78223c2.06001,-0.03955 4.10625,0.01611 6.16597,0.06006c-0.73945,-2.11816 -1.74507,-4.19238 -2.49683,-6.375c-0.27817,-0.854 -0.53701,-1.71533 -0.77637,-2.58105c-0.548,-1.93506 -1.0188,-4.10156 -1.45371,-6.0791c-0.6687,-2.64697 -1.03066,-9.74414 -0.77944,-12.44678c0.23936,-2.5752 1.67168,-14.14893 3.44355,-15.67969c-1.56855,7.53223 -1.87236,12.90234 -0.94761,20.50928c0.34292,0.17285 0.67397,0.23877 0.75806,0.63428c3.48911,16.75781 14.18877,31.73877 29.1126,40.20703c11.57666,6.56982 24.55078,8.69092 37.69189,6.95068c3.22119,-0.42773 6.47607,-0.97852 9.62402,-1.79736c0.33984,-0.08936 0.21094,-0.15967 0.44824,0.0498l-0.00586,0.42773c0.89648,0.16553 3.92871,-1.70654 5.19141,-1.65674c2.07275,-0.56836 6.67529,-3.16113 8.49463,-4.29492c0.2124,-0.10107 0.44824,-0.25781 0.65186,-0.38086c12.19189,-7.33447 21.82764,-20.66455 25.13379,-34.53809c3.33838,-14.30273 0.8335,-29.34521 -6.95801,-41.79463z" fill="url(#color-1)"/><path d="M229.31982,230.7085c4.90137,5.44336 10.23193,11.35107 15.30029,16.6582c1.97461,2.20313 3.96094,4.396 5.96045,6.57861c1.75781,1.90869 3.28857,3.90674 5.59424,5.13574c8.26904,4.40918 18.89941,0.08643 23.77734,-7.40186c0.42334,-0.65039 0.91406,-1.47656 1.35938,-2.07422c-0.64307,2.97656 -4.95117,6.82324 -7.47949,8.45068c-4.29639,2.78467 -9.53027,3.72949 -14.52686,2.62061c-1.70068,-0.38818 -3.43799,-1.21729 -4.8252,-2.27344c-1.64209,-1.25244 -9.51562,-10.62891 -10.23633,-10.59961c-0.41162,0.01611 -3.1084,1.41357 -3.6958,1.66846c-2.65869,1.15283 -7.33887,3.26221 -10.06934,3.76758c-0.22119,0.04102 -0.12744,0.02197 -0.40137,0.1333c0.22852,0.45996 1.52197,1.36523 1.98779,1.7915c2.78174,2.54297 5.3042,4.78418 8.79639,6.38672c0.5874,0.26953 1.11621,0.64307 1.70801,0.87012l-0.1377,0.06738c-2.26025,-0.93604 -5.46094,-2.67041 -7.25244,-4.24512c-2.04785,-1.79736 -3.43359,-3.23877 -5.69971,-4.83252c-8.41406,2.81396 -17.02148,5.01563 -25.75342,6.5874c-2.00098,0.36914 -5.12842,1.03711 -7.08252,1.24512c-1.16895,-0.01758 -3.41162,-0.92725 -4.60693,-1.36816c-7.19971,-2.64844 -15.26807,-6.87012 -21.10547,-11.91064c2.41113,-0.2417 5.21484,-0.51123 7.59521,-0.92285c-0.67676,-0.479 -2.19727,-0.86865 -3.09814,-1.23193c-3.19482,-1.29346 -6.65625,-2.43311 -9.67383,-4.1001c-0.34277,-0.19043 -0.14062,-0.15674 -0.7002,-0.37793l1.18506,-0.11865c-0.29443,-0.06152 -0.14502,-0.00293 -0.43799,-0.20215c-0.02783,-0.83789 0.19922,-1.94678 0.34131,-2.80664l0.89648,-0.14795c2.12549,-0.22852 13.91748,-1.78564 15.15527,-2.73193c1.93506,0.46436 5.47705,1.2041 7.24658,1.80029c1.05029,-0.20215 3.62988,0.31494 4.85742,0.45117c1.25537,0.12744 2.51514,0.20361 3.77637,0.22705c10.62598,0.15527 21.79834,-2.12549 31.24512,-7.09424z" fill="#e2bcc0"/><path d="M178.52637,247.0415c2.77441,-0.20947 6.11865,0.99609 9.0249,1.5791c3.20215,0.66943 6.44092,1.15576 9.7002,1.45752c3.12891,0.29004 7.0459,0.51855 10.18945,0.35303c7.92334,-0.41602 14.70557,-1.12646 22.03125,2.91504c3.95947,-1.37842 7.86035,-2.73047 11.68652,-4.45605c1.11621,-0.50391 2.31885,-1.11182 3.46143,-1.52344c1.97461,2.20313 3.96094,4.396 5.96045,6.57861c1.75781,1.90869 3.28857,3.90674 5.59424,5.13574c8.26904,4.40918 18.89941,0.08643 23.77734,-7.40186c0.42334,-0.65039 0.91406,-1.47656 1.35938,-2.07422c-0.64307,2.97656 -4.95117,6.82324 -7.47949,8.45068c-4.29639,2.78467 -9.53027,3.72949 -14.52686,2.62061c-1.70068,-0.38818 -3.43799,-1.21729 -4.8252,-2.27344c-1.64209,-1.25244 -9.51562,-10.62891 -10.23633,-10.59961c-0.41162,0.01611 -3.1084,1.41357 -3.6958,1.66846c-2.65869,1.15283 -7.33887,3.26221 -10.06934,3.76758c-0.22119,0.04102 -0.12744,0.02197 -0.40137,0.1333c0.22852,0.45996 1.52197,1.36523 1.98779,1.7915c2.78174,2.54297 5.3042,4.78418 8.79639,6.38672c0.5874,0.26953 1.11621,0.64307 1.70801,0.87012l-0.1377,0.06738c-2.26025,-0.93604 -5.46094,-2.67041 -7.25244,-4.24512c-2.04785,-1.79736 -3.43359,-3.23877 -5.69971,-4.83252c-8.41406,2.81396 -17.02148,5.01563 -25.75342,6.5874c-2.00098,0.36914 -5.12842,1.03711 -7.08252,1.24512c-1.16895,-0.01758 -3.41162,-0.92725 -4.60693,-1.36816c-7.19971,-2.64844 -15.26807,-6.87012 -21.10547,-11.91064c2.41113,-0.2417 5.21484,-0.51123 7.59521,-0.92285z" fill="#ecd0cf"/><path d="M182.19434,235.32422c1.93506,0.46436 5.47705,1.2041 7.24658,1.80029c-7.65088,1.79443 -15.39697,3.15967 -23.20166,4.08838c-0.29443,-0.06152 -0.14502,-0.00293 -0.43799,-0.20215c-0.02783,-0.83789 0.19922,-1.94678 0.34131,-2.80664l0.89648,-0.14795c2.12549,-0.22852 13.91748,-1.78564 15.15527,-2.73193z" fill="#b51616"/><path d="M255.87598,204.26221c3.00293,-6.43506 4.70361,-11.06689 5.8125,-18.1582c2.10498,0.18018 8.50195,6.47754 10.00195,8.3291c4.59229,5.66455 7.66992,12.08789 6.87451,19.52197c-0.40869,3.80713 -1.60693,7.01514 -3.35303,10.40186c-0.36914,0.71484 -1.27881,1.69189 -1.48096,2.1665c-4.396,-4.0459 -8.62354,-8.3291 -13.00195,-12.3999c-1.22461,-1.13965 -2.4668,-2.29834 -3.6167,-3.50977c0.41309,-1.79443 0.27832,-5.12549 -1.23633,-6.35156z" fill="#feeae4"/><path d="M138.28579,202.86475c2.06001,-0.03955 4.10625,0.01611 6.16597,0.06006l0.1481,0.20947c0.6709,0.9668 1.27163,2.43164 1.91968,3.62695c7.3667,13.58203 20.72461,24.2915 35.57959,28.54688c0.03076,0.00586 0.06299,0.01025 0.09521,0.01611c-1.23779,0.94629 -13.02979,2.50342 -15.15527,2.73193c0.15674,-0.39697 0.54199,-1.021 0.76465,-1.40918c-12.65625,-6.07324 -24.69126,-20.69971 -29.51792,-33.78223z" fill="#d0221e"/><path d="M141.44136,180.27246c0.34292,0.17285 0.67397,0.23877 0.75806,0.63428c3.48911,16.75781 14.18877,31.73877 29.1126,40.20703c11.57666,6.56982 24.55078,8.69092 37.69189,6.95068c3.22119,-0.42773 6.47607,-0.97852 9.62402,-1.79736c0.33984,-0.08936 0.21094,-0.15967 0.44824,0.0498l-0.00586,0.42773c0.89648,0.16553 3.92871,-1.70654 5.19141,-1.65674c-3.98437,2.39795 -13.28027,4.34326 -18.00293,4.83691c-15.82617,1.54395 -31.62451,-3.18604 -43.99805,-13.17041c-10.74609,-8.73633 -19.39175,-22.59229 -20.81938,-36.48193z" fill="#fec7ae"/><path d="M255.87598,204.26221c1.51465,1.22607 1.64941,4.55713 1.23633,6.35156c-1.14551,-1.00781 -2.03467,-1.80029 -3.09814,-2.91211c0.62109,-1.0166 1.29199,-2.36719 1.86182,-3.43945z" fill="#ecd0cf"/><path d="M246.99023,213.7998c1.86328,-1.76367 4.55127,-3.26807 6.72217,-1.31104c7.44141,6.70605 14.78613,14.0874 21.86133,21.15381c3.82471,3.82031 2.27051,10.72266 -1.6582,13.77539c-4.8501,4.05322 -10.16162,3.44385 -14.3584,-1.20557c-1.41357,-0.96973 -1.8208,-2.17676 -2.88867,-3.36475c-5.41846,-6.0249 -10.77539,-12.11279 -16.35937,-17.98535c-0.82617,-0.86865 -1.70215,-1.75635 -2.40234,-2.72607c3.09961,-2.55322 6.15527,-5.55908 9.0835,-8.33643z" fill="#fe9775"/><path d="M246.99023,213.7998l13.51025,13.64063c2.20313,2.22803 4.75781,4.63623 6.86572,6.91553c-2.9502,2.2998 -8.26465,6.33691 -9.57275,9.66797c0.57129,0.62842 1.37988,1.45898 1.76367,2.18848c-1.41357,-0.96973 -1.8208,-2.17676 -2.88867,-3.36475c-5.41846,-6.0249 -10.77539,-12.11279 -16.35937,-17.98535c-0.82617,-0.86865 -1.70215,-1.75635 -2.40234,-2.72607c3.09961,-2.55322 6.15527,-5.55908 9.0835,-8.33643z" fill="#fe8261"/><path d="M110.71274,102.6019c3.30278,0.3854 6.59517,0.94072 9.90146,1.33447c3.40957,0.40605 6.86177,0.64629 10.28862,0.86514c24.3501,1.55581 55.79443,-0.53115 78.646,-9.34233c8.34082,-3.21606 18.32813,-7.53486 22.1748,-16.19297c0.03662,0.88813 0.03955,1.55566 0.00732,2.4438c0.29736,9.82075 -0.04102,19.99072 -0.05859,29.82964c-0.00146,1.17246 -1.61426,3.82529 -2.35254,4.77275c-0.28125,0.42437 -0.33838,0.49702 -0.54346,0.98101c0.12891,1.43203 0.36475,4.69351 -0.19336,5.99429c-0.30615,0.18237 -0.14355,0.1585 -0.48926,0.07251c-0.86572,-0.56367 -2.68066,-1.29873 -3.68994,-1.73218c-0.47314,-0.11763 -2.45508,-0.91245 -3.02197,-1.12471c-2.7832,-0.88096 -5.37158,-1.72456 -8.25146,-2.27109c-14.16211,-2.6877 -29.51807,-0.08408 -42.26221,6.55195c-7.84277,4.0834 -13.45166,8.93027 -19.00049,15.71499c-0.78662,-0.12173 -4.69629,-0.02959 -5.66733,-0.0186c-8.52437,-0.00308 -17.03965,-0.55942 -25.49194,-1.66553c-3.10781,-0.38071 -8.43325,-1.08618 -11.49902,-1.85625c0.79937,0.03281 1.19941,0.21797 1.20029,-0.71074c0.01113,-10.91646 0.23877,-21.82119 0.10825,-32.74043c-0.00439,-0.35962 0.01216,-0.58623 0.19482,-0.90571z" fill="url(#color-2)"/><path d="M146.20034,140.48057c0.03018,-0.02842 0.06035,-0.05669 0.09038,-0.08511c6.75615,-9.00996 16.72441,-16.69512 27.14238,-21.01509c15.17871,-6.29458 34.14551,-7.06465 49.42969,-0.81182c-0.65479,0.30996 -1.65088,0.7708 -1.50293,1.6166l0.36914,0.16904c-0.22852,0.14326 -0.11133,0.098 -0.34717,0.14912c-2.7832,-0.88096 -5.37158,-1.72456 -8.25146,-2.27109c-14.16211,-2.6877 -29.51807,-0.08408 -42.26221,6.55195c-7.84277,4.0834 -13.45166,8.93027 -19.00049,15.71499c-0.78662,-0.12173 -4.69629,-0.02959 -5.66733,-0.0186z" fill="#e33631"/><path d="M231.73096,81.71001c0.29736,9.82075 -0.04102,19.99072 -0.05859,29.82964c-0.00146,1.17246 -1.61426,3.82529 -2.35254,4.77275c-0.13623,-0.3145 0.21533,-1.79561 -0.20068,-2.54004l-0.48926,0.00146c-0.07471,-0.45996 0.25928,-3.80449 0.26807,-4.78096c0.08496,-6.35127 0.09229,-12.70342 0.02344,-19.05498c-0.00439,-0.48369 -0.09668,-4.46367 -0.02197,-4.57793c0.84082,2.40337 -0.42773,16.57632 0.47314,17.52451c0.25049,-0.25034 0.23145,-0.25898 0.55664,-0.38613c0.60059,0.39199 0.17725,0.47168 0.71338,0.93237c1.2832,-2.35444 0.9624,-4.87456 0.95654,-7.45049l-0.02197,-9.92725c-0.00146,-1.04048 -0.07178,-3.42026 0.15381,-4.34297z" fill="#fe5c49"/><path d="M224.40381,121.62803c0.06299,-0.12554 4.24951,-4.26152 4.37256,-4.33462c0.12891,1.43203 0.36475,4.69351 -0.19336,5.99429c-0.30615,0.18237 -0.14355,0.1585 -0.48926,0.07251c-0.86572,-0.56367 -2.68066,-1.29873 -3.68994,-1.73218z" fill="#e33631"/><path d="M151.86768,140.49917c5.54883,-6.78472 11.15771,-11.63159 19.00049,-15.71499c12.74414,-6.63604 28.1001,-9.23965 42.26221,-6.55195c2.87988,0.54653 5.46826,1.39014 8.25146,2.27109c0.56689,0.21226 2.54883,1.00708 3.02197,1.12471c1.00928,0.43345 2.82422,1.16851 3.68994,1.73218l-0.20947,0.1897c-7.13965,-3.99067 -19.22314,-6.59062 -27.55811,-5.97334c-0.34717,0.02578 -0.48193,0.18691 -0.64307,0.45483c0.92432,-0.34614 3.3208,0.28711 4.08105,-0.12788c0.89648,0.21943 2.29688,0.45586 2.91797,1.12075l-0.00439,0.17007c-0.34424,0.19834 -0.43213,0.15996 -0.55078,0.41411c0.46143,0.35713 0.68701,0.28491 1.22021,0.22251c1.07227,-0.12568 2.30859,0.26323 3.38818,0.36123c5.57666,0.77446 10.80908,2.52085 15.93018,4.81421c0.93457,0.41865 2.22217,1.33213 3.17871,1.82109c1.07373,0.54829 1.8457,0.83643 2.84326,1.55156c1.1748,0.84199 2.34375,1.69043 3.49072,2.57329c0.30908,0.23862 1.14258,0.64087 1.34326,0.83569c1.73291,1.67476 5.12549,4.41445 6.42627,6.20083l0.00879,0.23599c-0.42627,-0.24521 -2.29248,-2.30229 -2.86084,-2.84648c-14.46387,-13.86973 -34.63916,-18.67749 -53.95752,-13.55054c-14.50928,3.8502 -27.53174,12.71689 -35.18848,26.01006c-6.74077,11.7832 -8.56875,25.74756 -5.08887,38.86963c8.96338,32.89893 46.70654,49.42236 77.55176,36.98584c1.58936,-0.64014 6.97705,-3.59326 8.34375,-2.90039c-1.81934,1.13379 -6.42187,3.72656 -8.49463,4.29492c-1.2627,-0.0498 -4.29492,1.82227 -5.19141,1.65674l0.00586,-0.42773c-0.2373,-0.20947 -0.1084,-0.13916 -0.44824,-0.0498c-3.14795,0.81885 -6.40283,1.36963 -9.62402,1.79736c-13.14111,1.74023 -26.11523,-0.38086 -37.69189,-6.95068c-14.92383,-8.46826 -25.62349,-23.44922 -29.1126,-40.20703c-0.08408,-0.39551 -0.41514,-0.46143 -0.75806,-0.63428c-0.92476,-7.60693 -0.62095,-12.97705 0.94761,-20.50928c0.50127,-1.75488 0.94834,-3.24902 1.5561,-4.96729c-1.51157,-0.15674 -4.12104,-0.10107 -5.73135,-0.10693c0.13242,-0.43359 0.56279,-1.34326 0.76069,-1.7959c0.31992,-0.44824 1.53398,-3.16113 1.82681,-3.79541c1.90415,-0.0249 3.80859,-0.01611 5.71245,0.02197l1.21143,-2.39209c1.36816,-2.24824 2.53418,-4.13174 4.14258,-6.22837z" fill="url(#color-3)"/><path d="M140.80122,149.09766c1.90415,-0.0249 3.80859,-0.01611 5.71245,0.02197c-0.93047,1.9585 -1.69687,3.70605 -2.5686,5.67627c-1.51157,-0.15674 -4.12104,-0.10107 -5.73135,-0.10693c0.13242,-0.43359 0.56279,-1.34326 0.76069,-1.7959c0.31992,-0.44824 1.53398,-3.16113 1.82681,-3.79541z" fill="#d4777c"/><path d="M250.21875,141.65391c0.52002,0.71104 1.09424,1.46733 1.58496,2.18979l-0.21973,0.23569c-0.52588,-0.65801 -1.38281,-1.60166 -1.36523,-2.42549z" fill="#fe7359"/><path d="M199.00195,127.2126c12.41602,-0.57847 24.60059,3.49453 34.17188,11.42256c9.0542,7.6314 15.14941,19.64121 16.07227,31.44492c0.92871,11.50928 -2.83594,22.90283 -10.43555,31.59375c-7.18213,8.27344 -17.69678,13.75635 -28.45752,15.60645c-2.15771,0.37061 -4.23047,0.53174 -6.41016,0.68848c-13.16309,0.66064 -26.05518,-3.89795 -35.87695,-12.68555c-8.91943,-7.9292 -14.29834,-19.0957 -14.93701,-31.01221c-0.63281,-11.3833 3.31934,-22.54395 10.97314,-30.99229c9.33398,-10.27236 21.1875,-15.40034 34.8999,-16.06611z" fill="#e33631"/><path d="M173.74658,138.07456c3.99609,-3.32827 9.0293,-5.27285 13.97607,-6.7377c14.99268,-4.44067 34.89111,-0.39785 45.90381,11.16035c1.69775,1.49795 5.1665,5.49448 6.11865,7.4896c0.01172,0.00879 0.02344,0.01904 0.03516,0.02783c4.75195,6.83789 7.1499,15.5918 7.021,23.75684c-0.38086,23.9751 -23.68506,42.63721 -47.26025,41.8374c-12.23877,-0.49658 -23.79785,-5.75977 -32.20752,-14.66602c-12.99902,-13.98779 -15.75293,-35.47559 -4.69043,-51.55371c1.01367,-1.47217 1.95117,-3.02241 3.27832,-4.24761c1.9834,-2.16357 5.4668,-5.50708 7.8252,-7.06699z" fill="url(#color-4)"/><path d="M221.24854,149.68066c0.38965,-0.10693 1.04883,-0.19775 1.46191,-0.25928c0.52588,-0.66504 0.8291,-2.39941 1.35938,-3.26689c1.70801,-2.79727 5.78027,-5.31401 8.93408,-3.3397c0.44092,-0.01904 0.22412,0.0375 0.62256,-0.31758c1.69775,1.49795 5.1665,5.49448 6.11865,7.4896c0.01172,0.00879 0.02344,0.01904 0.03516,0.02783c4.75195,6.83789 7.1499,15.5918 7.021,23.75684c-0.38086,23.9751 -23.68506,42.63721 -47.26025,41.8374c-12.23877,-0.49658 -23.79785,-5.75977 -32.20752,-14.66602c-12.99902,-13.98779 -15.75293,-35.47559 -4.69043,-51.55371c1.01367,-1.47217 1.95117,-3.02241 3.27832,-4.24761c-0.49658,2.6978 -4.87793,6.25444 -2.98828,9.45073c0.44385,0.75146 1.33447,1.19092 2.16504,1.3623c1.38135,0.271 2.81543,-0.0293 3.97266,-0.8335c1.67139,-1.18652 0.51416,-1.98633 1.06055,-2.73193c0.03516,1.10596 -0.01758,5.55908 0.19336,6.22412l0.05566,2.71289l-0.01318,24.62695c-0.1084,3.40869 -1.12646,7.61279 2.25879,9.43359c7.27881,0.21973 15.12744,-0.03076 22.45898,0.02344c3.5083,0.02637 10.80469,0.23145 14.00537,-0.10107c-0.87744,-2.72461 -2.17676,-6.01318 -3.14648,-8.80811l-0.57568,-1.8252c-0.50098,-1.71973 -1.97461,-5.01416 -1.99512,-6.57861c-0.05127,-3.8584 6.23584,-1.25098 8.07568,-0.6709l1.57471,0.37061l13.13965,3.29297c-0.0835,-3.38525 -0.03662,-7.42529 -0.01465,-10.83545c0.05273,-3.03223 0.05127,-6.06445 -0.00732,-9.09668c0.02197,-2.13135 0.20068,-7.7124 -0.0249,-9.54492c-1.38721,-2.25146 -2.45947,-1.94531 -4.86768,-1.93213z" fill="url(#color-5)"/><path d="M205.36816,184.67578c-0.50098,-1.71973 -1.97461,-5.01416 -1.99512,-6.57861c-0.05127,-3.8584 6.23584,-1.25098 8.07568,-0.6709l1.57471,0.37061l13.13965,3.29297c0.59912,0.17578 1.49561,0.40869 2.04785,0.64014c0.43213,0.35303 1.05762,0.8335 1.02246,1.40479c-0.12598,2.08447 -1.3418,2.98535 -1.87939,5.33496c1.70361,3.86133 3.67969,7.66846 5.05078,11.66162c0.50684,1.47803 -0.45703,2.23535 -1.8208,2.36133c-0.47314,-0.21533 -3.41309,-1.11035 -4.11768,-1.35645c-2.48877,-0.8335 -4.88232,-1.74023 -7.40186,-2.49023c-2.04346,-0.60645 -3.03662,0.73242 -4.58057,1.77393c-1.65674,1.11768 -2.72314,1.52197 -3.77783,-0.39697c-0.12012,-0.59912 -1.35352,-3.95801 -1.61572,-4.71387c-0.87744,-2.72461 -2.17676,-6.01318 -3.14648,-8.80811z" fill="url(#color-6)"/><path d="M221.24854,149.68066c0.38965,-0.10693 1.04883,-0.19775 1.46191,-0.25928c0.52588,-0.66504 0.8291,-2.39941 1.35938,-3.26689c1.70801,-2.79727 5.78027,-5.31401 8.93408,-3.3397c0.44092,-0.01904 0.22412,0.0375 0.62256,-0.31758c1.69775,1.49795 5.1665,5.49448 6.11865,7.4896c-0.55078,-0.42041 -0.66797,-0.6416 -1.08545,-1.21436c0.43652,0.854 1.64502,2.85645 1.72412,3.66943l-0.06299,0.09961l-0.01904,-0.10693c-3.29736,4.17334 -5.42725,2.96924 -9.92578,2.0874c-3.29443,-0.646 -1.59961,-2.28369 -3.44824,-3.03662c-0.20068,0.02783 -0.64014,0.07324 -0.81152,0.12744c-1.38721,-2.25146 -2.45947,-1.94531 -4.86768,-1.93213z" fill="#fe9775"/><path d="M233.62646,142.49722c1.69775,1.49795 5.1665,5.49448 6.11865,7.4896c-0.55078,-0.42041 -0.66797,-0.6416 -1.08545,-1.21436c0.43652,0.854 1.64502,2.85645 1.72412,3.66943l-0.06299,0.09961l-0.01904,-0.10693c-2.10645,-4.25537 -3.92578,-6.29561 -7.29785,-9.61978c0.44092,-0.01904 0.22412,0.0375 0.62256,-0.31758z" fill="#fe7359"/><path d="M226.11621,151.61279c0.17139,-0.0542 0.61084,-0.09961 0.81152,-0.12744l0.11426,0.23291c0.30908,0.6167 1.23779,1.88672 1.26123,2.42432c0.12012,2.77734 0.02637,5.82861 0.0293,8.60449l0.10547,17.96338c0,0.34717 -0.05566,0.71338 -0.22705,1.01953c-0.55225,-0.23145 -1.44873,-0.46436 -2.04785,-0.64014c-0.0835,-3.38525 -0.03662,-7.42529 -0.01465,-10.83545c0.05273,-3.03223 0.05127,-6.06445 -0.00732,-9.09668c0.02197,-2.13135 0.20068,-7.7124 -0.0249,-9.54492z" fill="#fe5c49"/><path d="M210.70605,200.02295c1.05469,1.91895 2.12109,1.51465 3.77783,0.39697c1.54395,-1.0415 2.53711,-2.38037 4.58057,-1.77393c2.51953,0.75 4.91309,1.65674 7.40186,2.49023c0.70459,0.24609 3.64453,1.14111 4.11768,1.35645c-0.1377,0.37939 -0.12598,1.93945 -0.1333,2.43604c-4.11768,-1.229 -8.05811,-2.66455 -12.14062,-3.89502c-1.54102,0.92725 -3.23584,2.0083 -4.8457,2.76855c-2.11084,-0.18457 -2.98242,-0.27686 -3.60059,-2.41113c0.65332,-0.24463 0.47314,0.14209 0.98291,-0.22559c0.01465,-0.72656 -0.34131,-0.49805 -0.14062,-1.14258z" fill="#e33631"/><path d="M170.36719,185.95313l0.12451,0.09375l0.13916,-0.05127c0.19629,-0.854 -0.08643,-2.23975 -0.05566,-3.22705c0.02637,-0.8877 0.06006,-1.7124 0.11426,-2.60596c1.09717,0.24463 1.4209,3.46143 2.1665,4.05322c-0.375,0.6167 -0.54199,1.01807 -0.65771,1.71094c-0.02637,0.1582 -0.61084,-0.07031 -0.71484,0.45557c0.854,2.54883 1.40039,4.16455 2.521,6.60205c0.08936,-1.72266 0.2959,-4.83545 0.04834,-6.49072l9.92139,-0.0249c-0.00146,2.32471 -0.07617,4.93945 0.06738,7.2583c0.01172,0.19629 0.03223,0.13477 0.2373,0.29004c0.51123,0.04541 0.74414,0.09229 1.25684,-0.00146c0.38379,-0.72803 0.2373,-6.39111 0.24023,-7.54395l11.85352,-0.01025c0.09668,1.48975 -0.13037,6.6167 0.25342,7.53076c0.58594,0.07471 0.67236,0.04102 1.26855,-0.06006c0.50537,-0.53906 0.36182,-6.39111 0.37207,-7.44434c2.14014,-0.00732 4.28027,-0.00293 6.42041,0.01318c0.96973,2.79492 2.26904,6.0835 3.14648,8.80811c-3.20068,0.33252 -10.49707,0.12744 -14.00537,0.10107c-7.33154,-0.0542 -15.18018,0.19629 -22.45898,-0.02344c-3.38525,-1.8208 -2.36719,-6.0249 -2.25879,-9.43359z" fill="#fdc935"/><path d="M173.74658,138.07456c2.86523,-0.68979 7.22754,-5.08081 8.63818,-0.34102c0.6167,2.07261 -0.06152,4.08062 -0.99902,5.9042c-0.63135,1.40859 -3.82764,4.6645 -3.83203,5.78657c0.77197,0.27686 3.41162,-0.01758 4.73145,0.26807c-1.95557,0.0542 -3.91846,-0.02637 -5.87402,-0.03955c-2.59424,-0.01611 -4.53223,-0.56104 -6.03662,2.0083c-0.09521,2.34229 0.06445,4.67725 -0.0498,6.95215c-0.21094,-0.66504 -0.1582,-5.11816 -0.19336,-6.22412c-0.54639,0.74561 0.61084,1.54541 -1.06055,2.73193c-1.15723,0.8042 -2.59131,1.10449 -3.97266,0.8335c-0.83057,-0.17139 -1.72119,-0.61084 -2.16504,-1.3623c-1.88965,-3.19629 2.4917,-6.75293 2.98828,-9.45073c1.9834,-2.16357 5.4668,-5.50708 7.8252,-7.06699z" fill="#fe9775"/><path d="M170.37451,151.66113c1.50439,-2.56934 3.44238,-2.02441 6.03662,-2.0083c1.95557,0.01318 3.91846,0.09375 5.87402,0.03955l1.68457,0.03516c-0.00732,3.05127 -0.11865,6.76611 -0.01758,9.76318c-0.06299,0.58594 0.02783,0.76904 -0.28711,1.12061c-4.4209,0.36182 -8.85059,0.60059 -13.28467,0.71484l-0.05566,-2.71289c0.11426,-2.2749 -0.04541,-4.60986 0.0498,-6.95215z" fill="#ffffff"/><path d="M213.17432,149.60742c2.55029,0.19043 5.51807,0.12451 8.07422,0.07324c2.4082,-0.01318 3.48047,-0.31934 4.86768,1.93213c0.22559,1.83252 0.04688,7.41357 0.0249,9.54492c-0.54639,0.01025 -1.30664,-0.09668 -1.86328,-0.17139c-3.6709,-0.49365 -7.30811,-0.58887 -11.0127,-0.61084c-0.09814,-1.89844 -0.03955,-4.2334 -0.03809,-6.16553z" fill="#ffffff"/><path d="M183.95215,159.49072l0.03369,2.2207c-2.02148,0.15674 -7.19238,-0.18311 -8.28516,0.84521c-0.15381,0.57275 -0.01758,0.65918 0.48779,1.01514c0.47607,0.03076 0.87451,0.05273 1.35205,0.05273c-1.13672,3.63281 -1.81641,6.01465 -2.38916,9.81006l-0.13916,0.04395c-0.04102,0.55078 -0.07617,1.05762 -0.15381,1.604l-0.11133,0.02637c-0.23437,2.90479 -0.76172,6.78516 -0.75879,9.60938l0.1377,0.03662c-0.39844,0.4585 -0.2915,1.06641 -0.27246,1.73877h0.19922c0.24756,1.65527 0.04102,4.76807 -0.04834,6.49072c-1.12061,-2.4375 -1.66699,-4.05322 -2.521,-6.60205c0.104,-0.52588 0.68848,-0.29736 0.71484,-0.45557c0.11572,-0.69287 0.28271,-1.09424 0.65771,-1.71094c-0.74561,-0.5918 -1.06934,-3.80859 -2.1665,-4.05322c-0.0542,0.89355 -0.08789,1.71826 -0.11426,2.60596c-0.03076,0.9873 0.25195,2.37305 0.05566,3.22705l-0.13916,0.05127l-0.12451,-0.09375l0.01318,-24.62695c4.43408,-0.11426 8.86377,-0.35303 13.28467,-0.71484c0.31494,-0.35156 0.22412,-0.53467 0.28711,-1.12061z" fill="#feda61"/><path d="M173.19141,184.58643l0.79688,0.13184l0.1377,0.03662c-0.39844,0.4585 -0.2915,1.06641 -0.27246,1.73877c-0.52734,0.11572 -0.82471,0.10547 -1.27002,-0.19482c-0.46436,-0.84961 -0.13477,-1.25391 0.60791,-1.7124z" fill="#feaa19"/><path d="M174.74707,175.10889c-0.81152,0.01611 -0.88477,0.07471 -1.37256,-0.58154c-0.03223,-0.55957 -0.08203,-0.28857 0.22998,-0.82324c0.60791,-0.3501 0.59033,-0.22266 1.40771,-0.22559c-0.04102,0.55078 -0.07617,1.05762 -0.15381,1.604z" fill="#fe7359"/><path d="M199.5249,149.72754l11.8623,-0.03955l0.0542,5.80078l-0.04248,5.00098c-3.66504,-0.14502 -8.12256,0.0498 -11.9209,0.01465c0.15674,-3.11865 0.01904,-7.52197 0.04688,-10.77686z" fill="#ffffff"/><path d="M213.18604,167.04785c1.19238,-0.38379 2.53711,0.39697 3.71777,0.95654c3.12598,1.48096 5.96484,1.60107 9.24463,2.25c-0.02197,3.41016 -0.06885,7.4502 0.01465,10.83545l-13.13965,-3.29297c0.31494,-0.66943 0.2373,-1.91455 0.24316,-2.69678c3.28711,0.0249 6.43213,0.08203 9.71777,-0.05713c0.05859,-0.61084 0.10986,-0.80273 -0.01172,-1.38867c-0.54346,-0.40137 -8.44629,-0.19922 -9.74854,-0.19043z" fill="url(#color-7)"/><path d="M174.8584,175.08252c2.28076,0.19922 6.68848,0.08936 9.09961,0.07324c-0.01025,3.08789 0.0498,6.55371 -0.08057,9.61377c-3.01465,-0.00146 -6.79834,0.10254 -9.75146,-0.01465l-0.1377,-0.03662c-0.00293,-2.82422 0.52441,-6.70459 0.75879,-9.60937z" fill="#fdc935"/><path d="M213.15381,159.86719c-0.04102,-1.75049 -0.03662,-3.92725 0.07324,-5.65723c-0.00146,1.93213 -0.06006,4.26709 0.03809,6.16553c3.70459,0.02197 7.3418,0.11719 11.0127,0.61084c0.55664,0.07471 1.31689,0.18164 1.86328,0.17139c0.05859,3.03223 0.06006,6.06445 0.00732,9.09668c-3.27979,-0.64893 -6.11865,-0.76904 -9.24463,-2.25c-1.18066,-0.55957 -2.52539,-1.34033 -3.71777,-0.95654l-0.04395,-3.47314c1.6626,-0.05273 8.14453,0.22412 9.17285,-0.28711c0.37354,-0.50684 0.25635,-0.37354 0.32666,-1.0957c-0.12744,-0.11719 -0.31934,-0.30762 -0.49512,-0.31348c-2.79639,-0.09814 -6.23877,-0.03955 -8.97217,-0.04687z" fill="#feda61"/><path d="M177.54053,163.62451c2.11963,-0.04687 4.23926,-0.04834 6.35889,-0.00439c0.07324,3.11279 0.11572,6.72949 -0.0498,9.82471c-2.66016,0.00439 -6.09814,0.104 -8.69824,-0.01025c0.57275,-3.79541 1.25244,-6.17725 2.38916,-9.81006z" fill="#fdc935"/><path d="M199.50732,175.20703c4.04297,-0.07178 7.77539,0.03369 11.87695,-0.11865c-0.01172,0.83057 0.01904,1.51172 0.06445,2.33789c-1.83984,-0.58008 -8.12695,-3.1875 -8.07568,0.6709c0.02051,1.56445 1.49414,4.85889 1.99512,6.57861c-1.89404,0.07324 -4.05176,0.03516 -5.96631,0.04395c0.00293,-2.98242 -0.08496,-6.58154 0.10547,-9.5127z" fill="#feaa19"/><path d="M211.39893,160.48975c0.00146,0.49072 0.07471,0.89795 -0.19482,1.27881c-1.86621,0.32813 -7.19385,0.02637 -9.43066,0.12451c-0.66064,-0.01025 -1.71094,0.1084 -2.1958,-0.17578c-0.27246,-0.52295 -0.1582,-0.5083 -0.09961,-1.21289c3.79834,0.03516 8.25586,-0.15967 11.9209,-0.01465z" fill="#fdc935"/><path d="M211.44141,155.48877c0.18457,1.26123 0.14355,3.24463 0.15674,4.57178c0.46729,-0.06299 1.09863,-0.16846 1.55566,-0.19336l0.02051,1.96436c2.7334,0.00732 6.17578,-0.05127 8.97217,0.04688c0.17578,0.00586 0.36768,0.19629 0.49512,0.31348c-0.96094,-0.30762 -3.46143,-0.16992 -4.57617,-0.1626l-10.54687,0.04834c-1.37256,0.00146 -4.52783,0.0542 -5.74512,-0.18457c2.23682,-0.09814 7.56445,0.20361 9.43066,-0.12451c0.26953,-0.38086 0.19629,-0.78809 0.19482,-1.27881z" fill="#fe8261"/><path d="M185.70996,149.70557c3.97412,0.03955 7.94971,0.00879 11.92236,-0.09082c0.12012,3.55664 0.05566,7.39893 -0.00146,10.95996c0.00732,0.44971 0.08203,0.8833 -0.14941,1.23926c-1.89404,0.13477 -9.7749,0.16846 -11.63672,0.02051c-0.35596,-0.32666 -0.26367,-0.55225 -0.1377,-1.0166c0.1333,-3.38818 0.00732,-7.65674 0.00293,-11.1123z" fill="#ffffff"/><path d="M185.70703,160.81787c3.97266,-0.15674 7.94824,-0.2373 11.92383,-0.24316c0.00732,0.44971 0.08203,0.8833 -0.14941,1.23926c-1.89404,0.13477 -9.7749,0.16846 -11.63672,0.02051c-0.35596,-0.32666 -0.26367,-0.55225 -0.1377,-1.0166z" fill="#fdc935"/><path d="M185.76563,163.60547l11.85205,0.01172c0.05127,3.27979 0.04541,6.56104 -0.01758,9.83936l-11.84473,-0.02637c0.06299,-3.20654 0.01172,-6.60498 0.01025,-9.82471z" fill="#fdc935"/><path d="M199.4751,163.64795l11.89453,-0.03369c0.03369,3.26807 0.03369,6.53613 0.00146,9.80273l-11.81396,-0.01025z" fill="#fdc935"/><path d="M185.84619,175.16602l11.79346,-0.01611c0.01465,3.19189 0.00293,6.38525 -0.03369,9.57715c-3.95215,0.04541 -7.90723,0.0498 -11.85937,0.01318c0.13623,-2.87988 0.0293,-6.57129 0.09961,-9.57422z" fill="#fdc935"/><path d="M61.05249,176.23096c0.42041,0.27393 1.15122,2.12256 1.84336,2.99414c1.88599,2.37305 3.4251,3.76758 5.80034,5.60889c4.32832,2.8667 7.31558,4.65088 12.15498,6.70898c10.19121,4.31104 18.83965,6.33105 29.61211,8.37158l0.5313,0.10693c7.39512,1.19971 13.53032,2.12256 21.02314,2.47119c1.17393,0.20947 4.77788,0.2915 6.14268,0.34717l0.12539,0.0249c4.82666,13.08252 16.86167,27.70898 29.51792,33.78223c-0.22266,0.38818 -0.60791,1.01221 -0.76465,1.40918l-0.89648,0.14795c-0.14209,0.85986 -0.36914,1.96875 -0.34131,2.80664c0.29297,0.19922 0.14355,0.14063 0.43799,0.20215l-1.18506,0.11865c0.55957,0.22119 0.35742,0.1875 0.7002,0.37793c3.01758,1.66699 6.479,2.80664 9.67383,4.1001c0.90088,0.36328 2.42139,0.75293 3.09814,1.23193c-2.38037,0.41162 -5.18408,0.68115 -7.59521,0.92285c5.8374,5.04053 13.90576,9.26221 21.10547,11.91064c1.19531,0.44092 3.43799,1.35059 4.60693,1.36816c-2.26025,0.18457 -6.1333,0.89355 -8.60156,1.22607c-4.95557,0.67529 -9.93311,1.18213 -14.92236,1.51904c-36.72393,2.58984 -77.56304,-0.4043 -111.83892,-14.59277c-12.43667,-5.35693 -28.60063,-14.55469 -33.64849,-27.89648c-8.22891,-21.74854 16.37212,-37.11475 33.07632,-43.64355c0.21782,-0.37061 0.2335,-1.12646 0.34395,-1.62451z" fill="#ecd0cf"/><path d="M196.64355,261.24316c-2.26025,0.18457 -6.1333,0.89355 -8.60156,1.22607c-4.95557,0.67529 -9.93311,1.18213 -14.92236,1.51904c-36.72393,2.58984 -77.56304,-0.4043 -111.83892,-14.59277c-12.43667,-5.35693 -28.60063,-14.55469 -33.64849,-27.89648c-8.22891,-21.74854 16.37212,-37.11475 33.07632,-43.64355c0.21782,-0.37061 0.2335,-1.12646 0.34395,-1.62451c0.03926,4.78711 0.00249,9.99023 -0.06138,14.7876c-0.71206,0.3208 -1.95293,1.23193 -2.60757,1.72266c-4.07886,3.05713 -8.00625,7.15723 -9.78999,12.00586c-1.34458,3.65332 -1.08105,8.3042 0.7144,11.7876c5.86494,11.37598 20.65532,17.61768 32.08257,21.73535c3.22104,1.16162 6.66665,2.07861 9.87612,2.95459c17.64507,4.81641 35.17705,6.65039 53.37598,7.16748c6.42085,0.14502 12.84419,0.0791 19.26021,-0.19482c0.84375,-0.03809 6.6123,-0.42773 7.02832,-0.23291c5.8374,5.04053 13.90576,9.26221 21.10547,11.91064c1.19531,0.44092 3.43799,1.35059 4.60693,1.36816z" fill="#feeae4"/><path d="M110.99458,200.02148c7.39512,1.19971 13.53032,2.12256 21.02314,2.47119c1.17393,0.20947 4.77788,0.2915 6.14268,0.34717l0.12539,0.0249c4.82666,13.08252 16.86167,27.70898 29.51792,33.78223c-0.22266,0.38818 -0.60791,1.01221 -0.76465,1.40918l-0.89648,0.14795c-1.18799,0.01465 -2.61621,0.22705 -3.82324,0.3252c-16.73042,1.3623 -35.73193,1.39014 -52.12163,-2.31006l0.21475,-0.17725c0.14604,-0.88916 0.09463,-6.646 0.09976,-7.83252l0.10532,-18.11426c0.00059,-3.06885 -0.07339,-6.27539 0.01934,-9.34863c0.01655,-0.54785 0.0397,-0.46436 0.35771,-0.7251z" fill="#fe5c49"/><path d="M80.85117,191.54297c10.19121,4.31104 18.83965,6.33105 29.61211,8.37158l0.5313,0.10693c-0.31802,0.26074 -0.34116,0.17725 -0.35771,0.7251c-0.09272,3.07324 -0.01875,6.27979 -0.01934,9.34863l-0.10532,18.11426c-0.00513,1.18652 0.04629,6.94336 -0.09976,7.83252l-0.21475,0.17725c-11.75127,-2.44336 -18.07808,-4.11475 -29.15728,-8.96924l-0.21108,-0.14355c0.11675,-10.86475 -0.11016,-21.81006 -0.03311,-32.68359c0.00674,-0.96533 0.01963,-1.91455 0.05493,-2.87988z" fill="#fe7359"/><path d="M61.05249,176.23096c0.42041,0.27393 1.15122,2.12256 1.84336,2.99414c1.88599,2.37305 3.4251,3.76758 5.80034,5.60889c4.32832,2.8667 7.31558,4.65088 12.15498,6.70898c-0.0353,0.96533 -0.04819,1.91455 -0.05493,2.87988c-0.07705,10.87354 0.14985,21.81885 0.03311,32.68359c-3.60688,-1.5 -9.39741,-5.03906 -12.33823,-7.52783c-1.89902,-1.38867 -3.74355,-3.40576 -5.2333,-5.22803c-0.4645,-0.56982 -0.86821,-1.35645 -1.51494,-1.68018c-1.06392,-1.62012 -0.76816,-6.8042 -0.76611,-8.93701l0.01436,-12.71484c0.06387,-4.79736 0.10063,-10.00049 0.06138,-14.7876z" fill="#fe9775"/><path d="M61.05249,176.23096c0.42041,0.27393 1.15122,2.12256 1.84336,2.99414c1.88599,2.37305 3.4251,3.76758 5.80034,5.60889c-0.36064,8.13721 0.02197,16.66699 -0.11338,24.81885c-0.03545,2.13135 0.16011,8.0127 -0.0917,9.92578c-1.89902,-1.38867 -3.74355,-3.40576 -5.2333,-5.22803c-0.4645,-0.56982 -0.86821,-1.35645 -1.51494,-1.68018c-1.06392,-1.62012 -0.76816,-6.8042 -0.76611,-8.93701l0.01436,-12.71484c0.06387,-4.79736 0.10063,-10.00049 0.06138,-14.7876z" fill="#fe8261"/><path d="M81.04043,227.25c11.0792,4.85449 17.40601,6.52588 29.15728,8.96924c16.3897,3.7002 35.39121,3.67236 52.12163,2.31006c1.20703,-0.09814 2.63525,-0.31055 3.82324,-0.3252c-0.14209,0.85986 -0.36914,1.96875 -0.34131,2.80664c0.29297,0.19922 0.14355,0.14063 0.43799,0.20215l-1.18506,0.11865c-26.87109,2.82568 -59.44204,0.17725 -84.20977,-11.13428c-0.00703,-0.74121 -0.08379,-2.33936 0.196,-2.94727z" fill="#e33631"/><path d="M61.74287,212.67041c0.64673,0.32373 1.05044,1.11035 1.51494,1.68018c1.48975,1.82227 3.33428,3.83936 5.2333,5.22803c2.94082,2.48877 8.73135,6.02783 12.33823,7.52783l0.21108,0.14355c-0.27979,0.60791 -0.20303,2.20605 -0.196,2.94727c-1.77041,-0.68994 -5.90654,-2.97803 -7.55552,-4.06641c-5.09033,-3.36475 -10.16851,-7.23779 -11.54604,-13.46045z" fill="#fe5c49"/><path d="M148.48975,46.65527c20.13281,-0.16729 42.30322,2.29351 61.32275,9.14399c6.89795,2.03467 22.29639,10.76953 17.47998,20.04185c-6.78662,13.06216 -32.39209,18.50493 -45.41455,20.82056c-11.81836,2.10161 -24.53906,2.95371 -36.01758,2.93027c-20.07363,0.08306 -42.36694,-2.79492 -61.11108,-10.18228c-6.38774,-2.46035 -18.72905,-9.05728 -18.50112,-16.96538c0.31553,-10.95176 19.6623,-17.35649 28.34956,-19.57075c17.32559,-4.41606 36.06533,-6.1916 53.89204,-6.21826z" fill="url(#color-8)"/><path d="M61.13672,129.34951c1.94004,3.67002 4.18037,5.54604 7.49531,8.00566c4.38765,2.7958 7.33945,4.55288 12.21357,6.5231c9.6605,3.82485 19.72339,6.54214 29.99604,8.09927c5.33745,0.78662 10.62744,1.60547 16.01309,2.02881c1.83325,0.14502 4.60928,0.4248 6.44062,0.39404c1.0311,0.14795 2.32441,0.12012 3.15029,0.26953c0.59165,-0.00146 1.177,-0.01025 1.76807,0.01904c1.6103,0.00586 4.21978,-0.0498 5.73135,0.10693c-0.60776,1.71826 -1.05483,3.2124 -1.5561,4.96729c-1.77187,1.53076 -3.2042,13.10449 -3.44355,15.67969c-0.25122,2.70264 0.11074,9.7998 0.77944,12.44678c-1.96626,-0.20068 -4.0623,-0.10547 -6.01084,-0.34277c-8.3269,-0.6123 -14.97935,-1.35498 -23.21001,-2.87402c-8.19668,-1.63184 -16.11079,-3.58887 -23.90405,-6.66943c-1.73525,-0.68555 -4.25273,-1.64941 -5.88105,-2.54736c-2.63877,-1.16309 -5.41992,-2.68652 -7.90049,-4.15869c-0.29956,-0.375 -3.63735,-2.59131 -4.31074,-3.12012c-1.40581,-0.84521 -3.4396,-3.34424 -4.27896,-3.41455c-0.2603,-0.9917 -2.90317,-2.96924 -3.07998,-4.62744c-0.2833,-2.66162 -0.11865,-5.68799 -0.12788,-8.38037c-0.02959,-7.46836 0.00908,-14.9373 0.11587,-22.40537z" fill="#fe8261"/><path d="M110.84165,151.97754c5.33745,0.78662 10.62744,1.60547 16.01309,2.02881c1.83325,0.14502 4.60928,0.4248 6.44062,0.39404c1.0311,0.14795 2.32441,0.12012 3.15029,0.26953c0.59165,-0.00146 1.177,-0.01025 1.76807,0.01904c1.6103,0.00586 4.21978,-0.0498 5.73135,0.10693c-0.60776,1.71826 -1.05483,3.2124 -1.5561,4.96729c-1.77187,1.53076 -3.2042,13.10449 -3.44355,15.67969c-0.25122,2.70264 0.11074,9.7998 0.77944,12.44678c-1.96626,-0.20068 -4.0623,-0.10547 -6.01084,-0.34277c-8.3269,-0.6123 -14.97935,-1.35498 -23.21001,-2.87402c-0.07354,-9.63574 0.05669,-19.24951 0.06606,-28.88672c0.00088,-0.77344 -0.09829,-3.28418 0.27158,-3.80859z" fill="#fe7359"/><path d="M138.21372,154.68896c1.6103,0.00586 4.21978,-0.0498 5.73135,0.10693c-0.60776,1.71826 -1.05483,3.2124 -1.5561,4.96729c-1.77187,1.53076 -3.2042,13.10449 -3.44355,15.67969c-0.25122,2.70264 0.11074,9.7998 0.77944,12.44678c-1.96626,-0.20068 -4.0623,-0.10547 -6.01084,-0.34277c0.39478,-0.03809 0.44048,-0.0293 0.80801,-0.16113c0.2502,-1.0752 -0.60337,-8.38623 -0.53628,-10.51904c0.13535,-4.31104 0.51431,-7.55566 1.07666,-11.88574c0.50669,-1.62451 0.88052,-3.42334 1.38281,-5.07568c0.53848,-1.771 1.14785,-3.47168 1.76851,-5.21631z" fill="#e33631"/><path d="M136.44565,154.66992c0.59165,-0.00146 1.177,-0.01025 1.76807,0.01904c-0.62065,1.74463 -1.23003,3.44531 -1.76851,5.21631c-0.50229,1.65234 -0.87612,3.45117 -1.38281,5.07568c-0.41484,-1.29199 -0.39917,-8.62207 -0.23452,-10.0957c0.37529,-0.21387 1.15122,-0.19189 1.61777,-0.21533z" fill="#fe5c49"/><path d="M61.13672,129.34951c1.94004,3.67002 4.18037,5.54604 7.49531,8.00566c4.38765,2.7958 7.33945,4.55288 12.21357,6.5231l-0.03794,22.04897c-0.0104,2.36279 0.15703,7.40625 -0.08877,9.52881c-2.63877,-1.16309 -5.41992,-2.68652 -7.90049,-4.15869c-0.29956,-0.375 -3.63735,-2.59131 -4.31074,-3.12012c-1.40581,-0.84521 -3.4396,-3.34424 -4.27896,-3.41455c-0.2603,-0.9917 -2.90317,-2.96924 -3.07998,-4.62744c-0.2833,-2.66162 -0.11865,-5.68799 -0.12788,-8.38037c-0.02959,-7.46836 0.00908,-14.9373 0.11587,-22.40537z" fill="#fec7ae"/><path d="M61.13672,129.34951c1.94004,3.67002 4.18037,5.54604 7.49531,8.00566l-0.05845,20.31035c0.00293,1.98047 0.16289,8.7832 -0.06592,10.51172c-1.40581,-0.84521 -3.4396,-3.34424 -4.27896,-3.41455c-0.2603,-0.9917 -2.90317,-2.96924 -3.07998,-4.62744c-0.2833,-2.66162 -0.11865,-5.68799 -0.12788,-8.38037c-0.02959,-7.46836 0.00908,-14.9373 0.11587,-22.40537z" fill="#fe9775"/><path d="M61.03799,78.16494c1.2936,4.54131 4.01924,6.8562 7.61382,9.7377c3.83218,2.68169 7.96479,4.90605 12.31348,6.62813c6.73228,2.77969 13.60151,4.68794 20.68916,6.33853c2.99546,0.69771 6.04043,1.13584 9.0583,1.73262c-0.18267,0.31948 -0.19922,0.54609 -0.19482,0.90571c0.13052,10.91924 -0.09712,21.82397 -0.10825,32.74043c-0.00088,0.92871 -0.40093,0.74355 -1.20029,0.71074c-1.07036,-0.09668 -4.5167,-0.8937 -5.61973,-1.16104c-7.24893,-1.75664 -16.15195,-4.24146 -22.85171,-7.50557c-2.8793,-1.30913 -4.97007,-2.45508 -7.74155,-4.00312c-0.36738,-0.42495 -3.66489,-2.55601 -4.47217,-3.19438c-0.90396,-0.65962 -3.70737,-3.45791 -4.30078,-3.51797c-0.16948,-0.91128 -3.02666,-3.1166 -3.07559,-4.57295c-0.38584,-11.48145 0.07983,-23.39048 -0.10986,-34.83882z" fill="#fe9775"/><path d="M61.03799,78.16494c1.2936,4.54131 4.01924,6.8562 7.61382,9.7377c3.83218,2.68169 7.96479,4.90605 12.31348,6.62813c-0.40767,1.0582 -0.16157,30.81079 -0.22734,33.76143c-2.8793,-1.30913 -4.97007,-2.45508 -7.74155,-4.00312c-0.36738,-0.42495 -3.66489,-2.55601 -4.47217,-3.19438c-0.90396,-0.65962 -3.70737,-3.45791 -4.30078,-3.51797c-0.16948,-0.91128 -3.02666,-3.1166 -3.07559,-4.57295c-0.38584,-11.48145 0.07983,-23.39048 -0.10986,-34.83882z" fill="#fec7ae"/><path d="M61.03799,78.16494c1.2936,4.54131 4.01924,6.8562 7.61382,9.7377c-0.13945,2.88545 -0.04204,6.55562 -0.03838,9.50347l-0.02754,14.62939c0.00249,2.26567 0.13755,7.05732 -0.06167,9.05918c-0.90396,-0.65962 -3.70737,-3.45791 -4.30078,-3.51797c-0.16948,-0.91128 -3.02666,-3.1166 -3.07559,-4.57295c-0.38584,-11.48145 0.07983,-23.39048 -0.10986,-34.83882z" fill="#fe9775"/><path d="M72.81841,171.29736c2.48057,1.47217 5.26172,2.99561 7.90049,4.15869c1.62832,0.89795 4.1458,1.86182 5.88105,2.54736c7.79326,3.08057 15.70737,5.0376 23.90405,6.66943c8.23066,1.51904 14.88311,2.26172 23.21001,2.87402c1.94854,0.2373 4.04458,0.14209 6.01084,0.34277c0.43491,1.97754 0.90571,4.14404 1.45371,6.0791c0.23936,0.86572 0.49819,1.72705 0.77637,2.58105c0.75176,2.18262 1.75737,4.25684 2.49683,6.375c-2.05972,-0.04395 -4.10596,-0.09961 -6.16597,-0.06006l-0.12539,-0.0249c-1.36479,-0.05566 -4.96875,-0.1377 -6.14268,-0.34717c-7.49282,-0.34863 -13.62803,-1.27148 -21.02314,-2.47119l-0.5313,-0.10693c0.41338,-0.72217 -0.15264,-4.93799 0.37456,-6.54932c-9.19863,-1.63184 -21.64673,-5.00977 -30.12554,-9.09668l0.09668,-6.18018c-3.22822,-2.2251 -5.18613,-3.8584 -8.02646,-6.49365z" fill="url(#color-9)"/><path d="M72.81841,171.29736c2.48057,1.47217 5.26172,2.99561 7.90049,4.15869c1.62832,0.89795 4.1458,1.86182 5.88105,2.54736c7.79326,3.08057 15.70737,5.0376 23.90405,6.66943c8.23066,1.51904 14.88311,2.26172 23.21001,2.87402c1.94854,0.2373 4.04458,0.14209 6.01084,0.34277c0.43491,1.97754 0.90571,4.14404 1.45371,6.0791c-16.04634,-0.33691 -34.22021,-3.37646 -48.96826,-9.854c-4.42939,-1.94531 -7.27983,-3.70459 -11.40132,-6.02637c-3.22822,-2.2251 -5.18613,-3.8584 -8.02646,-6.49365z" fill="#d0221e"/><path d="M110.83784,193.36523c4.73364,0.88916 9.50112,1.58643 14.29102,2.09326c2.16592,0.23291 5.2377,0.36182 7.24189,0.6416c-0.00835,1.05176 0.1522,5.85205 -0.32402,6.375c-0.00762,0.00879 -0.01934,0.01172 -0.029,0.01758c-7.49282,-0.34863 -13.62803,-1.27148 -21.02314,-2.47119l-0.5313,-0.10693c0.41338,-0.72217 -0.15264,-4.93799 0.37456,-6.54932z" fill="#ecd0cf"/><path d="M132.37075,196.1001c1.0374,0.06299 2.50254,0.10693 3.50171,0.22998c1.85449,0.16992 4.18359,0.17285 6.08247,0.21973c0.75176,2.18262 1.75737,4.25684 2.49683,6.375c-2.05972,-0.04395 -4.10596,-0.09961 -6.16597,-0.06006l-0.12539,-0.0249c-1.36479,-0.05566 -4.96875,-0.1377 -6.14268,-0.34717c0.00967,-0.00586 0.02139,-0.00879 0.029,-0.01758c0.47622,-0.52295 0.31567,-5.32324 0.32402,-6.375z" fill="#d4777c"/><path d="M132.37075,196.1001c1.0374,0.06299 2.50254,0.10693 3.50171,0.22998c0.56675,1.9043 1.98076,5.00977 2.28794,6.50977c-1.36479,-0.05566 -4.96875,-0.1377 -6.14268,-0.34717c0.00967,-0.00586 0.02139,-0.00879 0.029,-0.01758c0.47622,-0.52295 0.31567,-5.32324 0.32402,-6.375z" fill="#e2bcc0"/><path d="M72.99639,124.28906c2.77148,1.54805 4.86226,2.69399 7.74155,4.00312c6.69976,3.26411 15.60278,5.74893 22.85171,7.50557c1.10303,0.26733 4.54937,1.06436 5.61973,1.16104c3.06577,0.77007 8.39121,1.47554 11.49902,1.85625c8.45229,1.1061 16.96758,1.66245 25.49194,1.66553c0.97104,-0.01099 4.88071,-0.10312 5.66733,0.0186c-1.6084,2.09663 -2.77441,3.98013 -4.14258,6.22837l-1.21143,2.39209c-1.90386,-0.03809 -3.8083,-0.04687 -5.71245,-0.02197c-0.29282,0.63428 -1.50688,3.34717 -1.82681,3.79541c-0.1979,0.45264 -0.62827,1.3623 -0.76069,1.7959c-0.59106,-0.0293 -1.17642,-0.02051 -1.76807,-0.01904c-0.82588,-0.14941 -2.11919,-0.12158 -3.15029,-0.26953c0.47725,-0.01172 0.73022,0.0249 1.14946,-0.20361c0.24009,-0.39551 0.1043,-1.0166 0.05698,-1.51465c-10.30693,-0.34863 -16.37095,-1.47217 -26.20283,-4.19678c0.57319,-0.22852 3.21885,0.69434 3.94556,0.8833c6.92183,1.79736 14.84604,3.14648 22.00986,3.12158c0.01143,-1.11182 0.00542,-2.09033 -0.04424,-3.20068c-0.29106,-0.43506 -6.23218,-0.67676 -7.13818,-0.76904c-12.31113,-1.26123 -24.65347,-3.36475 -36.46304,-7.12808c-1.17686,-0.375 -3.59692,-1.12471 -4.47349,-1.85537c-1.90034,-0.7708 -3.38525,-1.34165 -5.26787,-2.21514c-0.12202,-1.87822 -0.06387,-4.52637 -0.08057,-6.46377c-2.43823,-1.47407 -5.86978,-4.36772 -7.86387,-6.34351z" fill="#d0221e"/><path d="M80.78701,130.85815c1.64766,0.71382 3.22661,1.91499 4.83662,2.76372c13.4521,7.09233 28.30195,10.46382 43.37007,12.05713c4.24629,0.44854 8.50444,0.77549 12.76934,0.97969c0.96035,0.03955 5.46401,-0.05127 5.96206,0.06885l-1.21143,2.39209c-1.90386,-0.03809 -3.8083,-0.04687 -5.71245,-0.02197c-0.29282,0.63428 -1.50688,3.34717 -1.82681,3.79541c-0.1979,0.45264 -0.62827,1.3623 -0.76069,1.7959c-0.59106,-0.0293 -1.17642,-0.02051 -1.76807,-0.01904c-0.82588,-0.14941 -2.11919,-0.12158 -3.15029,-0.26953c0.47725,-0.01172 0.73022,0.0249 1.14946,-0.20361c0.24009,-0.39551 0.1043,-1.0166 0.05698,-1.51465c-10.30693,-0.34863 -16.37095,-1.47217 -26.20283,-4.19678c0.57319,-0.22852 3.21885,0.69434 3.94556,0.8833c6.92183,1.79736 14.84604,3.14648 22.00986,3.12158c0.01143,-1.11182 0.00542,-2.09033 -0.04424,-3.20068c-0.29106,-0.43506 -6.23218,-0.67676 -7.13818,-0.76904c-12.31113,-1.26123 -24.65347,-3.36475 -36.46304,-7.12808c-1.17686,-0.375 -3.59692,-1.12471 -4.47349,-1.85537c-1.90034,-0.7708 -3.38525,-1.34165 -5.26787,-2.21514c-0.12202,-1.87822 -0.06387,-4.52637 -0.08057,-6.46377z" fill="#e33631"/><path d="M86.13545,139.53706c2.02207,0.55605 3.9687,1.3582 5.96953,1.96362c13.67212,4.1373 28.17319,6.47197 42.42759,7.21611c2.06353,0.19189 4.1937,0.25488 6.26865,0.38086c-0.29282,0.63428 -1.50688,3.34717 -1.82681,3.79541c-0.1979,0.45264 -0.62827,1.3623 -0.76069,1.7959c-0.59106,-0.0293 -1.17642,-0.02051 -1.76807,-0.01904c-0.82588,-0.14941 -2.11919,-0.12158 -3.15029,-0.26953c0.47725,-0.01172 0.73022,0.0249 1.14946,-0.20361c0.24009,-0.39551 0.1043,-1.0166 0.05698,-1.51465c-10.30693,-0.34863 -16.37095,-1.47217 -26.20283,-4.19678c0.57319,-0.22852 3.21885,0.69434 3.94556,0.8833c6.92183,1.79736 14.84604,3.14648 22.00986,3.12158c0.01143,-1.11182 0.00542,-2.09033 -0.04424,-3.20068c-0.29106,-0.43506 -6.23218,-0.67676 -7.13818,-0.76904c-12.31113,-1.26123 -24.65347,-3.36475 -36.46304,-7.12808c-1.17686,-0.375 -3.59692,-1.12471 -4.47349,-1.85537z" fill="#ecd0cf"/><path d="M134.53257,148.7168c2.06353,0.19189 4.1937,0.25488 6.26865,0.38086c-0.29282,0.63428 -1.50688,3.34717 -1.82681,3.79541c-0.7166,-0.31494 -3.42012,-0.28125 -4.34927,-0.2915c0.00996,-1.29492 -0.02095,-2.59131 -0.09258,-3.88477z" fill="#e2bcc0"/><path d="M64.22344,117.57671c0.59341,0.06006 3.39683,2.85835 4.30078,3.51797c0.80728,0.63838 4.10479,2.76943 4.47217,3.19438l-0.07324,0.22559c1.99409,1.97578 5.42563,4.86943 7.86387,6.34351c0.0167,1.9374 -0.04146,4.58555 0.08057,6.46377c-5.06763,-2.35591 -11.28311,-5.50781 -14.67246,-10.0292c-2.47295,-3.29897 -2.52861,-5.84971 -1.97168,-9.71602z" fill="#fe5c49"/><path d="M64.22871,164.7627c0.83936,0.07031 2.87314,2.56934 4.27896,3.41455c0.67339,0.52881 4.01118,2.74512 4.31074,3.12012l-0.03589,0.29736c2.84033,2.63525 4.79824,4.26855 8.02646,6.49365l-0.09668,6.18018c-4.81626,-2.05518 -11.3666,-5.90625 -14.46592,-10.06494c-2.33101,-3.12744 -2.56992,-5.70703 -2.01768,-9.44092z" fill="#fe5c49"/></g></svg></svg>